<?xml version="1.0" encoding="UTF-8" standalone="no"?>
<svg xmlns="http://www.w3.org/2000/svg" version="1.1" width="950" height="200" viewBox="0 0 950 200">
  <g fill="#000000" fill-rule="evenodd" stroke="none">
    <path d="M117 128 Z" /> <path d="M106 128 Z" /> <path d="M10 122 Z" /> <path d="M149 119 Z" /> <path d="M155 94 Z" /> <path d="M886 86 L885 97 L906 98 L906 147 L920 147 L920 99 L922 97 L941 97 L941 86 Z" /> <path d="M835 86 L835 146 L877 147 L878 136 L850 135 L851 120 L875 120 L875 109 L851 109 L850 98 L877 97 L877 86 Z" /> <path d="M782 86 L782 146 L825 146 L825 136 L797 135 L797 86 Z" /> <path d="M732 86 L710 147 L724 147 L730 135 L753 135 L759 147 L772 146 L751 87 Z" /> <path d="M741 101 L746 111 L750 123 L749 125 L733 124 Z" /> <path d="M645 86 L667 146 L686 146 L707 86 L692 87 L678 129 L676 131 L660 86 Z" /> <path d="M558 86 L558 146 L573 146 L573 124 L579 123 L583 124 L588 129 L597 147 L612 147 L603 127 L594 118 L598 116 L604 109 L605 100 L603 94 L598 89 L593 87 Z" /> <path d="M574 97 L580 96 L587 98 L590 102 L589 109 L584 113 L574 113 Z" /> <path d="M527 86 L527 146 L541 147 L542 86 Z" /> <path d="M477 86 L455 147 L469 147 L475 135 L498 135 L504 147 L516 147 L517 144 L496 87 Z" /> <path d="M486 101 L491 111 L495 123 L494 125 L478 124 Z" /> <path d="M369 86 L369 97 L389 98 L389 147 L404 146 L404 98 L424 97 L424 86 Z" /> <path d="M318 86 L318 146 L360 147 L361 136 L333 135 L334 120 L358 120 L358 109 L334 109 L333 98 L360 97 L360 86 Z" /> <path d="M295 88 L287 86 L257 86 L258 147 L272 146 L273 125 L290 125 L300 121 L303 118 L306 112 L306 100 L304 95 Z" /> <path d="M286 97 L291 103 L290 111 L284 115 L273 115 L272 98 L280 96 Z" /> <path d="M113 83 Z" /> <path d="M59 63 Z" /> <path d="M103 45 Z" /> <path d="M103 43 Z" /> <path d="M103 29 Z" /> <path d="M105 11 Z" /> <path d="M116 8 Z" /> <path d="M106 7 Z" />
  </g>
</svg>