<?xml version="1.0" encoding="UTF-8" standalone="no"?>
<svg xmlns="http://www.w3.org/2000/svg" version="1.1" width="750" height="170" viewBox="0 0 750 170">
  <g fill="#000000" fill-rule="evenodd" stroke="none">
    <path d="M653 59 L652 70 L673 71 L673 120 L687 120 L687 72 L689 70 L708 70 L708 59 Z" /> <path d="M602 59 L602 119 L644 120 L645 109 L617 108 L618 93 L642 93 L642 82 L618 82 L617 71 L644 70 L644 59 Z" /> <path d="M549 59 L549 119 L591 120 L592 109 L564 108 L564 59 Z" /> <path d="M499 59 L477 120 L491 120 L497 108 L520 108 L526 120 L539 120 L540 119 L518 60 Z" /> <path d="M508 74 L513 84 L517 96 L516 98 L500 97 Z" /> <path d="M412 59 L434 119 L452 120 L475 59 L459 60 L444 103 L441 100 L427 59 Z" /> <path d="M325 59 L325 119 L340 119 L340 97 L346 96 L350 97 L355 102 L364 120 L379 120 L370 100 L361 91 L365 89 L371 82 L372 73 L370 67 L365 62 L360 60 Z" /> <path d="M340 71 L354 71 L357 75 L356 82 L351 86 L341 86 Z" /> <path d="M294 59 L294 119 L308 120 L309 59 Z" /> <path d="M244 59 L222 120 L236 120 L242 108 L265 108 L271 120 L284 120 L283 114 L263 60 Z" /> <path d="M253 74 L258 84 L262 96 L261 98 L245 97 Z" /> <path d="M136 59 L136 70 L156 71 L156 119 L170 120 L171 71 L191 70 L191 59 Z" /> <path d="M85 59 L85 119 L127 120 L128 109 L100 108 L101 93 L125 93 L125 82 L101 82 L100 71 L127 70 L127 59 Z" /> <path d="M62 61 L54 59 L24 59 L24 119 L39 119 L40 98 L57 98 L65 95 L70 91 L73 85 L73 73 L71 68 Z" /> <path d="M39 71 L53 70 L58 76 L57 84 L51 88 L40 88 Z" />
  </g>
</svg>